<svg width="312" height="84" viewBox="0 0 312 84" fill="none" xmlns="http://www.w3.org/2000/svg">
<g clip-path="url(#clip0_1_249)">
<path d="M68.7509 57.2241C76.2698 55.2081 76.5967 48.5915 75.0124 49.9717C73.906 50.9337 71.341 53.5351 69.631 53.1922C68.9102 53.05 68.5665 52.0127 68.1222 50.3398C67.6864 48.7086 67.6193 47.3033 67.9714 47.1277C69.9244 46.2075 70.9722 44.752 70.6202 43.4555C70.1927 41.8494 67.5187 41.1719 64.6855 41.9331C61.844 42.6943 59.8155 44.6266 60.243 46.2326C60.595 47.5292 62.2295 48.2736 64.3838 48.0896C64.7694 48.0645 65.4232 49.3193 65.8674 50.9504C66.3201 52.6317 66.5464 53.6941 65.9848 54.1792C64.6772 55.3252 61.1482 54.3633 59.7149 54.0789C57.6612 53.6774 61.2404 59.2484 68.7593 57.2408" fill="#0164A3"/>
<path d="M72.6068 69.1354C57.7954 73.8364 41.2405 65.7225 36.8985 49.8293C36.4291 48.1061 36.1609 46.1822 35.9932 44.735C35.9429 44.3001 35.4149 44.0491 35.046 44.1411C12.7158 49.7874 21.9949 6.84219 41.4836 24.467C42.1625 25.0776 42.699 24.3331 42.8247 24.2077C48.3151 18.6701 51.735 16.947 57.4098 15.4329C62.3637 14.1113 68.7174 14.5713 72.6319 15.6755C73.3612 15.8762 74.2413 15.0649 73.4953 14.2284C64.87 4.50003 51.8524 -0.117378 42.0871 -0.000269617C18.8432 0.284136 0 18.804 0 41.9997C0 65.1955 18.8432 83.9997 42.0871 83.9997C54.2581 83.9997 65.901 78.7215 73.5791 70.4821C74.1491 69.8715 73.6461 68.8008 72.5984 69.1354" fill="#0164A3"/>
<path d="M52.1206 36.3537C50.419 36.8138 49.673 38.7544 50.2011 40.7369C50.7376 42.7278 52.3553 44.041 54.0569 43.581C55.7669 43.1209 56.5967 41.1635 56.0603 39.1643C55.5322 37.1818 53.8222 35.8937 52.1206 36.3454" fill="#0164A3"/>
<path d="M72.4559 30.9082C70.7543 31.3683 70.0083 33.3089 70.5364 35.2914C71.0728 37.2906 72.6906 38.5955 74.3922 38.1438C76.0938 37.6921 76.932 35.7264 76.3955 33.7272C75.8675 31.7447 74.1575 30.4565 72.4559 30.9082Z" fill="#0164A3"/>
<path d="M92.3469 42.9954V42.8448C92.3469 27.5957 103.864 15.1069 120.369 15.1069C130.503 15.1069 136.571 18.478 141.559 23.3798L134.04 32.0374C129.891 28.2816 125.675 25.9813 120.293 25.9813C111.232 25.9813 104.711 33.4929 104.711 42.6859V42.8365C104.711 52.0295 111.081 59.6917 120.293 59.6917C126.437 59.6917 130.201 57.2408 134.426 53.4097L141.953 60.9966C136.421 66.8938 130.285 70.5744 119.916 70.5744C104.099 70.5744 92.3469 58.3868 92.3469 42.987" fill="#0164A3"/>
<path d="M147.938 16.0271H159.757V37.2571H181.567V16.0271H193.394V69.6626H181.567V48.1314H159.757V69.6626H147.938V16.0271Z" fill="#0164A3"/>
<path d="M200.377 42.9954V42.8448C200.377 27.5957 212.431 15.1069 229.019 15.1069C245.607 15.1069 257.502 27.4451 257.502 42.6943V42.8448C257.502 58.094 245.448 70.5827 228.86 70.5827C212.271 70.5827 200.377 58.2446 200.377 42.9954ZM245.138 42.9954V42.8448C245.138 33.6518 238.382 25.9896 228.86 25.9896C219.337 25.9896 212.741 33.5013 212.741 42.6943V42.8448C212.741 52.0378 219.497 59.7 229.019 59.7C238.541 59.7 245.146 52.1884 245.146 42.9954" fill="#0164A3"/>
<path d="M262.187 42.9954V42.8448C262.187 27.5957 273.705 15.1069 290.217 15.1069C300.352 15.1069 306.42 18.478 311.408 23.3798L303.889 32.0374C299.74 28.2816 295.515 25.9813 290.142 25.9813C281.081 25.9813 274.559 33.4929 274.559 42.6859V42.8365C274.559 52.0295 280.93 59.6917 290.142 59.6917C296.286 59.6917 300.05 57.2408 304.266 53.4097L311.785 60.9966C306.261 66.8938 300.117 70.5744 289.748 70.5744C273.931 70.5744 262.179 58.3868 262.179 42.987" fill="#0164A3"/>
</g>
<defs>
<clipPath id="clip0_1_249">
<rect width="311.793" height="84" fill="white"/>
</clipPath>
</defs>
</svg>
